<?xml version="1.0" encoding="utf-8"?>
<!-- Generator: Adobe Illustrator 14.0.0, SVG Export Plug-In . SVG Version: 6.00 Build 43363)  -->
<!DOCTYPE svg PUBLIC "-//W3C//DTD SVG 1.1//EN" "http://www.w3.org/Graphics/SVG/1.1/DTD/svg11.dtd">
<svg version="1.1" id="Layer_1" xmlns="http://www.w3.org/2000/svg" xmlns:xlink="http://www.w3.org/1999/xlink" x="0px" y="0px"
	 width="300px" height="190px" viewBox="0 0 300 190" enable-background="new 0 0 300 190" xml:space="preserve">
<g>
	<g>
		<path d="M190.387,158.552c-0.575-1.994-1.934-3.19-3.723-3.293h-73.349c-1.789,0.103-3.264,1.533-3.722,3.293l-9.624,26.222
			H17.816L93.834,5.227h112.342l76.017,179.546H200.04L190.387,158.552z M151.699,53.078c-0.353-1.04-0.781-1.729-1.729-1.739
			c-0.948,0-1.417,0.771-1.7,1.719l-20.965,57.475c-0.098,0.527,0,1.09,0.313,1.557c0.41,0.604,1.075,0.936,1.749,0.927
			l41.434-0.021c0.625-0.038,1.221-0.464,1.593-1.011c0.33-0.492,0.42-1.07,0.303-1.603L151.699,53.078z"/>
		<polygon points="268.633,5.227 295.216,184.782 229.096,5.227 		"/>
		<polygon points="31.387,5.227 4.793,184.782 70.915,5.227 		"/>
	</g>
</g>
</svg>
